<svg width="1440" height="375" viewBox="0 0 1440 375" fill="none"><path opacity="0.6" fill-rule="evenodd" clip-rule="evenodd" d="M-8.53894 375L179.695 285.502C181.201 284.685 245.77 250.074 386.658 221.485C528.498 192.702 627.18 194.474 628.167 194.486C629.411 194.516 754.034 196.864 821.186 162.497C831.328 157.308 840.102 152.628 848.587 148.102C895.668 122.989 921.602 109.156 1019.82 97.7822C1059.07 93.2357 1093.14 90.0454 1123.2 87.2303C1180.17 81.8935 1221.33 78.0371 1247.25 69.3228C1262.55 64.1789 1283.62 54.0758 1305.92 43.3783C1341.61 26.2687 1382.05 6.87604 1413.97 0.105746L1414.47 0L1414.75 0.383352L1486.24 99.5104L1484.74 99.3603C1483.67 99.2513 1376.41 88.8771 1278.7 109.177C1220.8 121.208 1178.98 134.504 1134.72 148.582C1103.84 158.405 1071.9 168.561 1033.25 178.586C960 197.582 934.658 200.374 879.126 206.495C863.871 208.176 846.579 210.081 825.348 212.644C799.019 215.823 776.611 217.986 756.839 219.895C701.431 225.243 664.824 228.777 608.845 247.492C572.707 259.573 546.923 271.261 524.175 281.576C499.031 292.975 477.317 302.819 449.565 309.458C424.732 315.402 405.865 315.849 379.753 316.471C350.455 317.168 313.992 318.037 251.985 327.081C136.024 343.996 19.1083 368.065 -2.17775 373.4L-8.53894 375ZM624.106 195.735C604.235 195.735 512.553 197.245 386.978 222.727C245.344 251.469 181.065 286.247 180.433 286.596L180.393 286.618L3.42929 370.756C35.4536 363.434 144.024 341.541 251.748 325.829C313.853 316.774 350.37 315.902 379.712 315.204C405.725 314.583 424.518 314.136 449.187 308.235C476.792 301.625 498.444 291.81 523.515 280.448C546.296 270.117 572.12 258.411 608.332 246.304C664.483 227.532 701.162 223.993 756.684 218.632C776.444 216.724 798.838 214.562 825.153 211.385C846.391 208.822 863.686 206.916 878.945 205.234C934.397 199.123 959.706 196.334 1032.84 177.367C1071.45 167.353 1103.37 157.204 1134.23 147.389C1178.53 133.299 1220.39 119.991 1278.37 107.942C1370.04 88.8971 1470.06 96.7833 1483.41 97.9621L1413.81 1.45675C1382.15 8.28372 1342.03 27.5205 1306.61 44.5029C1284.26 55.2197 1263.15 65.3428 1247.76 70.5165C1221.67 79.2907 1180.43 83.1533 1123.35 88.4999C1093.3 91.3146 1059.24 94.5046 1020.01 99.0482C922.086 110.389 896.244 124.172 849.331 149.195C840.839 153.725 832.061 158.408 821.909 163.603C754.402 198.15 629.387 195.79 628.129 195.764C628.015 195.76 626.651 195.735 624.106 195.735ZM-11.6356 372.398L178.052 281.396C179.465 280.622 244.701 245.205 386.259 217.378C528.649 189.387 627.287 192.851 628.271 192.885C629.522 192.931 754.065 197.43 821.879 162.353C832.123 157.057 840.989 152.273 849.562 147.647C897.132 121.981 923.337 107.842 1021.77 97.4661C1061.11 93.3193 1095.24 90.5141 1125.34 88.0388C1182.41 83.3477 1223.64 79.9579 1249.72 71.2072C1265.11 66.0427 1286.38 55.7513 1308.9 44.8568C1344.91 27.4282 1385.74 7.67398 1417.79 1.06612L1418.31 0.959299L1418.58 1.36627L1488.05 106.789L1486.59 106.61C1485.52 106.48 1378.49 93.8193 1280.4 113.596C1222.27 125.318 1180.2 138.632 1135.66 152.731C1104.59 162.567 1072.46 172.739 1033.61 182.662C959.998 201.466 934.602 203.995 878.956 209.535C863.672 211.056 846.343 212.781 825.072 215.133C798.681 218.052 776.232 219.966 756.428 221.652C700.924 226.382 664.256 229.505 607.918 248.293C571.55 260.42 545.535 272.306 522.589 282.789C497.226 294.377 475.318 304.388 447.435 310.928C422.484 316.778 403.611 316.946 377.488 317.175C348.181 317.436 311.709 317.756 249.533 326.27C133.263 342.185 15.8876 365.623 -5.50117 370.888L-11.6356 372.398ZM616.191 194.006C585.795 194.006 500.13 196.3 386.572 218.624C244.396 246.572 179.442 282.13 178.803 282.486L178.762 282.508L-0.0934448 368.314C31.7758 361.177 141.035 339.83 249.312 325.008C311.59 316.483 348.121 316.16 377.473 315.902C403.491 315.669 422.291 315.506 447.065 309.692C474.799 303.187 496.637 293.209 521.927 281.658C544.91 271.156 570.961 259.254 607.406 247.101C663.927 228.255 700.668 225.123 756.289 220.384C776.086 218.697 798.52 216.787 824.889 213.869C846.175 211.516 863.503 209.79 878.795 208.269C934.357 202.737 959.717 200.213 1033.21 181.438C1072.01 171.526 1104.12 161.362 1135.18 151.533C1179.76 137.422 1221.86 124.094 1280.08 112.356C1372.19 93.7848 1472.13 103.739 1485.33 105.184L1417.6 2.41386C1385.82 9.08749 1345.33 28.6789 1309.59 45.9742C1287.03 56.8905 1265.72 67.2014 1250.24 72.3976C1223.97 81.2097 1182.66 84.6068 1125.47 89.3066C1095.38 91.7815 1061.26 94.5856 1021.95 98.731C923.82 109.075 897.71 123.162 850.315 148.735C841.735 153.365 832.862 158.15 822.611 163.454C754.424 198.721 629.467 194.207 628.209 194.159C628.012 194.151 623.853 194.006 616.191 194.006ZM-14.6887 369.615L176.501 277.05C178.023 276.2 243.958 240.019 385.943 213.049C528.865 185.903 627.434 191.143 628.414 191.199C629.661 191.272 754.087 198.024 822.578 162.212C832.924 156.803 841.881 151.912 850.545 147.183C898.617 120.941 925.1 106.486 1023.73 97.1612C1063.15 93.4349 1097.32 91.0366 1127.47 88.9211C1184.62 84.9099 1225.91 82.012 1252.16 73.2265C1267.65 68.0419 1289.11 57.5565 1311.84 46.4556C1348.2 28.6971 1389.41 8.5686 1421.59 2.13334L1422.13 2.02433L1422.38 2.45528L1489.73 114.471L1488.29 114.264C1487.22 114.109 1380.47 99.0467 1282.01 118.268C1223.66 129.66 1181.34 142.992 1136.53 157.106C1105.26 166.953 1072.94 177.137 1033.9 186.951C959.925 205.547 934.481 207.796 878.732 212.723C863.419 214.077 846.061 215.61 824.743 217.742C798.3 220.384 775.819 222.032 755.985 223.487C700.398 227.563 663.671 230.256 606.975 249.113C570.372 261.286 544.135 273.372 520.98 284.033C495.39 295.82 473.292 305.998 445.277 312.43C420.213 318.182 401.333 318.055 375.209 317.87C345.899 317.67 309.431 317.415 247.1 325.362C130.541 340.228 12.7189 362.986 -8.77265 368.185L-14.6887 369.615ZM605.581 192.032C568.529 192.032 488.847 194.806 386.246 214.295C243.581 241.394 177.901 277.77 177.253 278.137L177.212 278.159L-3.5584 365.68C28.1576 358.736 138.088 337.98 246.895 324.103C309.334 316.142 345.867 316.392 375.221 316.599C401.238 316.777 420.035 316.908 444.916 311.196C472.77 304.801 494.802 294.656 520.315 282.904C543.503 272.225 569.784 260.121 606.467 247.922C663.354 229.002 700.157 226.303 755.866 222.218C775.688 220.764 798.159 219.116 824.583 216.476C845.909 214.344 863.274 212.81 878.591 211.456C934.252 206.536 959.656 204.291 1033.5 185.726C1072.5 175.924 1104.8 165.748 1136.04 155.907C1180.89 141.779 1223.26 128.436 1281.7 117.026C1374.23 98.9624 1474.04 111.09 1487.1 112.814L1421.37 3.48507C1389.47 9.99701 1348.61 29.9529 1312.54 47.5712C1289.77 58.695 1268.26 69.2014 1252.67 74.419C1226.23 83.2689 1184.85 86.1722 1127.59 90.1914C1097.44 92.307 1063.28 94.7045 1023.89 98.4283C925.579 107.722 899.199 122.124 851.306 148.267C842.635 153 833.67 157.894 823.313 163.311C754.434 199.325 629.573 192.546 628.319 192.474C628.045 192.456 620.068 192.032 605.581 192.032ZM-17.6962 366.642L175.031 272.446C176.554 271.589 243.196 234.572 385.713 208.488C529.158 182.235 627.613 189.355 628.586 189.427C629.833 189.523 754.098 198.649 823.28 162.074C833.729 156.551 842.781 151.548 851.536 146.712C900.124 119.872 926.888 105.087 1025.7 96.8734C1065.18 93.5911 1099.4 91.6217 1129.59 89.884C1186.8 86.5908 1228.14 84.2115 1254.56 75.3929C1270.14 70.1876 1291.81 59.5013 1314.75 48.1871C1351.46 30.0859 1393.06 9.57005 1425.36 3.31938L1425.92 3.21036L1491.26 122.587L1489.85 122.348C1488.78 122.167 1382.34 104.583 1283.53 123.215C1224.96 134.257 1182.39 147.6 1137.31 161.726C1105.85 171.584 1073.33 181.777 1034.1 191.472C959.772 209.844 934.284 211.797 878.447 216.078C863.108 217.255 845.721 218.585 824.366 220.484C797.873 222.836 775.362 224.206 755.499 225.415C699.842 228.803 663.074 231.04 606.016 249.965C569.184 262.181 542.708 274.474 519.349 285.321C493.528 297.312 471.229 307.664 443.094 313.98C417.913 319.63 399.038 319.187 372.916 318.569C343.621 317.882 307.16 317.021 244.685 324.376C127.859 338.126 9.6025 360.164 -11.9896 365.288L-17.6962 366.642ZM593.26 189.767C552.39 189.767 478.596 192.79 386.006 209.736C242.833 235.941 176.447 273.159 175.792 273.529L175.751 273.555L-6.96117 362.853C24.6016 356.101 135.189 335.978 244.495 323.111C307.086 315.745 343.609 316.607 372.956 317.297C398.959 317.907 417.753 318.351 442.739 312.744C470.711 306.465 492.94 296.145 518.68 284.194C542.073 273.329 568.592 261.018 605.513 248.771C662.764 229.781 699.619 227.539 755.401 224.143C775.253 222.935 797.749 221.565 824.221 219.215C845.59 217.318 862.981 215.985 878.324 214.808C934.069 210.535 959.513 208.584 1033.71 190.245C1072.89 180.561 1105.4 170.376 1136.83 160.525C1181.95 146.385 1224.57 133.028 1283.23 121.968C1376.16 104.446 1475.78 118.859 1488.72 120.873L1425.12 4.67328C1393.1 11.0101 1351.86 31.3464 1315.46 49.3008C1292.47 60.6379 1270.75 71.3471 1255.06 76.5858C1228.45 85.4716 1187.02 87.8561 1129.68 91.1569C1099.5 92.8942 1065.3 94.8633 1025.83 98.143C927.364 106.328 900.702 121.056 852.301 147.794C843.542 152.633 834.482 157.638 824.019 163.169C754.434 199.956 629.716 190.795 628.461 190.698C628.118 190.672 615.61 189.767 593.26 189.767H593.26ZM-20.6535 363.463L173.653 267.581C175.169 266.716 242.531 228.828 385.575 203.684C529.521 178.381 627.823 187.472 628.799 187.566C630.043 187.686 754.096 199.308 823.984 161.941C834.542 156.297 843.689 151.18 852.54 146.232C901.654 118.77 928.708 103.645 1027.67 96.6027C1067.21 93.7895 1101.46 92.2728 1131.68 90.9342C1188.95 88.3968 1230.33 86.5636 1256.91 77.7126C1272.6 72.4874 1294.47 61.5921 1317.64 50.0566C1354.69 31.6015 1396.69 10.6845 1429.12 4.62896L1429.69 4.52176L1429.93 4.99414L1492.63 131.151L1491.24 130.88C1490.18 130.675 1384.11 110.444 1284.95 128.443C1226.18 139.113 1183.35 152.465 1138 166.601C1106.35 176.465 1073.63 186.665 1034.22 196.232C959.528 214.362 934.007 216.004 878.09 219.603C862.729 220.592 845.324 221.711 823.932 223.361C797.395 225.407 774.862 226.483 754.981 227.433C699.269 230.095 662.461 231.853 605.041 250.843C567.974 263.103 541.261 275.61 517.693 286.645C491.639 298.844 469.139 309.381 440.879 315.57C415.584 321.111 396.72 320.337 370.611 319.265C341.335 318.062 304.9 316.565 242.291 323.291C125.216 335.867 6.54242 357.146 -15.1481 362.182L-20.6535 363.463ZM579.914 187.175C537.306 187.175 469.269 190.271 385.856 204.934C242.192 230.188 175.085 268.279 174.422 268.66L174.379 268.686L-10.3007 359.819C21.1114 353.267 132.331 333.82 242.117 322.028C304.843 315.292 341.346 316.789 370.678 317.991C396.664 319.06 415.444 319.83 440.531 314.336C468.62 308.184 491.05 297.683 517.017 285.521C540.625 274.467 567.382 261.938 604.537 249.651C662.162 230.593 699.057 228.83 754.9 226.162C774.774 225.212 797.296 224.136 823.808 222.093C845.207 220.442 862.623 219.322 877.984 218.333C933.806 214.74 959.283 213.101 1033.83 195.005C1073.2 185.448 1105.9 175.257 1137.52 165.4C1182.91 151.249 1225.79 137.884 1284.66 127.196C1377.98 110.256 1477.36 127.069 1490.17 129.383L1428.84 5.98397C1396.71 12.1376 1355.09 32.866 1318.34 51.1667C1295.13 62.7269 1273.21 73.6462 1257.42 78.9048C1230.63 87.8266 1189.16 89.6642 1131.75 92.2067C1101.54 93.545 1067.3 95.0617 1027.78 97.8752C929.174 104.89 902.231 119.958 853.31 147.31C844.456 152.262 835.298 157.382 824.728 163.033C754.42 200.624 629.888 188.955 628.641 188.834C628.231 188.794 610.713 187.175 579.914 187.175ZM-23.5567 360.076L172.372 262.436C173.937 261.534 242.044 222.762 385.529 198.625C529.955 174.33 628.07 185.495 629.047 185.611C630.29 185.756 754.083 200 824.688 161.813C835.357 156.043 844.606 150.806 853.552 145.741C903.2 117.635 930.549 102.153 1029.64 96.3494C1069.24 94.0311 1103.51 92.9905 1133.75 92.0715C1191.06 90.3313 1232.47 89.0741 1259.21 80.1915C1275 74.947 1297.09 63.8348 1320.48 52.07C1357.89 33.2475 1400.3 11.9145 1432.85 6.06753L1433.44 5.96107L1433.66 6.45634L1493.83 140.188L1492.46 139.885C1491.41 139.65 1385.76 116.635 1286.27 133.971C1227.29 144.246 1184.2 157.603 1138.59 171.744C1106.75 181.611 1073.83 191.816 1034.23 201.245C959.197 219.114 933.644 220.429 877.664 223.309C862.285 224.1 844.858 224.997 823.441 226.385C796.867 228.107 774.312 228.874 754.416 229.551C698.664 231.448 661.831 232.701 604.052 251.753C566.748 264.055 539.79 276.784 516.006 288.015C489.713 300.432 467.009 311.155 438.628 317.212C413.224 322.633 394.378 321.514 368.29 319.959C339.043 318.219 302.644 316.053 239.915 322.114C122.603 333.451 3.535 353.916 -18.2488 358.869L-23.5567 360.076ZM566.038 184.224C523.215 184.224 460.766 187.266 385.798 199.877C241.663 224.123 173.815 263.122 173.145 263.511L173.102 263.537L-13.5722 356.563C17.6834 350.222 129.511 331.501 239.758 320.851C302.615 314.779 339.083 316.948 368.387 318.689C394.345 320.233 413.1 321.349 438.291 315.974C466.493 309.957 489.125 299.27 515.326 286.894C539.15 275.644 566.152 262.89 603.548 250.561C661.542 231.437 698.466 230.18 754.361 228.278C774.246 227.602 796.786 226.835 823.335 225.114C844.763 223.725 862.198 222.828 877.58 222.037C933.461 219.162 958.963 217.85 1033.86 200.015C1073.4 190.598 1106.3 180.402 1138.11 170.542C1183.78 156.385 1226.92 143.014 1285.99 132.721C1379.67 116.401 1478.74 135.727 1491.46 138.361L1432.54 7.42436C1400.3 13.3836 1358.28 34.5179 1321.19 53.178C1297.75 64.9686 1275.61 76.1047 1259.72 81.3848C1232.75 90.3408 1191.25 91.6009 1133.81 93.3458C1103.57 94.2637 1069.31 95.3044 1029.74 97.6216C931.018 103.403 903.778 118.823 854.331 146.815C845.378 151.882 836.121 157.123 825.442 162.899C754.394 201.327 630.1 187.022 628.853 186.874C628.385 186.819 605.574 184.224 566.038 184.224ZM-26.3999 356.465L171.192 257.002C172.764 256.081 241.629 216.377 385.584 193.3C530.478 170.076 628.362 183.42 629.335 183.556C630.575 183.732 754.054 200.73 825.394 161.688C836.175 155.789 845.527 150.428 854.572 145.243C904.772 116.466 932.425 100.614 1031.63 96.1151C1071.26 94.3179 1105.55 93.779 1135.8 93.3033C1193.13 92.4022 1234.56 91.751 1261.47 82.8383C1277.36 77.5763 1299.66 66.2403 1323.27 54.2393C1361.05 35.0353 1403.88 13.2695 1436.54 7.64347L1437.15 7.53882L1437.36 8.05334L1494.86 149.721L1493.51 149.382C1492.46 149.119 1387.29 123.183 1287.48 139.81C1228.31 149.667 1184.96 163.025 1139.07 177.167C1107.05 187.037 1073.93 197.241 1034.15 206.523C958.773 224.11 933.197 225.08 877.167 227.202C861.777 227.785 844.331 228.446 822.888 229.559C796.285 230.94 773.719 231.382 753.812 231.772C698.031 232.862 661.183 233.583 603.043 252.697C565.504 265.038 538.297 277.999 514.298 289.431C487.764 302.072 464.847 312.991 436.349 318.903C410.836 324.201 392.01 322.715 365.953 320.655C336.746 318.351 300.397 315.481 237.564 320.84C120.067 330.862 0.602551 350.469 -21.2818 355.328L-26.3999 356.465ZM551.987 180.891C510.059 180.891 453.019 183.787 385.842 194.554C241.257 217.734 172.648 257.673 171.973 258.074L171.928 258.099L-16.7727 353.084C14.3409 346.95 126.772 329.011 237.426 319.57C300.393 314.2 336.816 317.074 366.082 319.385C392.005 321.431 410.732 322.91 436.017 317.663C464.332 311.787 487.172 300.908 513.614 288.31C537.657 276.853 564.904 263.869 602.538 251.5C660.909 232.313 697.852 231.59 753.78 230.496C773.676 230.107 796.227 229.666 822.805 228.286C844.258 227.172 861.711 226.511 877.105 225.928C933.029 223.809 958.557 222.842 1033.78 205.288C1073.51 196.019 1106.6 185.823 1138.6 175.962C1184.54 161.803 1227.94 148.43 1287.21 138.555C1381.23 122.891 1479.95 144.863 1492.56 147.832L1436.22 9.00029C1403.86 14.7499 1361.44 36.3093 1323.99 55.344C1300.32 67.3715 1277.97 78.7326 1261.98 84.032C1234.83 93.0214 1193.3 93.6743 1135.83 94.5777C1105.59 95.0529 1071.31 95.5922 1031.7 97.3883C932.886 101.87 905.351 117.656 855.358 146.312C846.307 151.5 836.947 156.866 826.155 162.773C754.35 202.068 630.349 184.993 629.105 184.815C628.586 184.74 600.329 180.891 551.987 180.891ZM-29.1802 352.619L170.122 251.263C171.731 250.309 241.371 209.644 385.747 187.697C531.079 165.604 628.697 181.239 629.663 181.399C630.899 181.606 754.015 201.497 826.109 161.568C837 155.536 846.458 150.045 855.605 144.735C906.369 115.261 934.333 99.026 1033.61 95.9007C1073.28 94.6521 1107.58 94.6416 1137.84 94.6322C1195.17 94.6147 1236.6 94.6016 1263.67 85.6602C1279.66 80.3801 1302.18 68.8119 1326.03 56.5645C1364.19 36.9659 1407.44 14.7521 1440.21 9.36039L1440.84 9.25755L1441.03 9.79134L1495.7 159.769L1494.36 159.392C1493.32 159.097 1388.69 130.094 1288.57 145.974C1229.22 155.385 1185.62 168.742 1139.46 182.881C1107.24 192.748 1073.93 202.951 1033.97 212.073C958.248 229.363 932.658 229.967 876.587 231.291C861.19 231.655 843.741 232.067 822.279 232.89C795.65 233.912 773.077 234.01 753.163 234.097C697.378 234.34 660.523 234.5 602.017 253.67C564.237 266.047 536.781 279.248 512.562 290.891C485.78 303.768 462.651 314.884 434.036 320.647C408.417 325.807 389.621 323.935 363.608 321.348C334.453 318.449 298.166 314.837 235.24 319.459C117.561 328.096 -2.26699 346.795 -24.2424 351.551L-29.1802 352.619ZM537.998 177.154C497.771 177.154 445.958 179.836 385.991 188.952C240.973 210.998 171.591 251.92 170.907 252.331L170.861 252.356L-19.8949 349.372C11.068 343.452 124.067 326.341 235.118 318.187C298.187 313.558 334.551 317.173 363.768 320.08C389.64 322.657 408.334 324.517 433.712 319.405C462.134 313.681 485.182 302.602 511.87 289.772C536.136 278.108 563.639 264.885 601.514 252.475C660.258 233.227 697.216 233.066 753.158 232.822C773.058 232.736 795.612 232.637 822.216 231.617C843.688 230.793 861.144 230.381 876.549 230.018C932.506 228.697 958.045 228.092 1033.61 210.84C1073.51 201.73 1106.79 191.536 1138.98 181.677C1185.2 167.521 1228.86 154.151 1288.32 144.72C1382.66 129.758 1480.96 154.499 1493.47 157.819L1439.85 10.7176C1407.4 16.2459 1364.57 38.2442 1326.76 57.6663C1302.85 69.9416 1280.28 81.5364 1264.18 86.8539C1236.85 95.8763 1195.32 95.8894 1137.84 95.9069C1107.59 95.9163 1073.3 95.9268 1033.66 97.1743C934.785 100.287 906.941 116.453 856.393 145.8C847.243 151.114 837.778 156.608 826.872 162.649C754.299 202.844 630.638 182.859 629.398 182.652C628.831 182.558 595.081 177.155 537.997 177.155L537.998 177.154ZM-31.8924 348.536L169.161 245.205C170.797 244.223 241.233 202.556 386.018 181.801C531.773 160.908 629.072 178.949 630.035 179.133C631.267 179.369 753.956 202.301 826.821 161.454C837.829 155.281 847.393 149.656 856.643 144.216C907.984 114.018 936.266 97.384 1035.61 95.7063C1075.28 95.0362 1109.58 95.582 1139.84 96.0638C1197.16 96.9766 1238.58 97.6354 1265.82 88.6649C1281.91 83.3681 1304.66 71.5586 1328.74 59.0554C1367.28 39.0476 1410.97 16.3705 1443.84 11.2274L1444.48 11.1271L1444.66 11.6787L1496.34 170.357L1495.02 169.941C1493.98 169.614 1389.94 137.396 1289.54 152.479C1230.02 161.422 1186.16 174.769 1139.72 188.9C1107.32 198.762 1073.81 208.958 1033.68 217.913C957.621 234.881 932.02 235.1 875.928 235.584C860.527 235.717 843.07 235.868 821.594 236.386C794.951 237.028 772.381 236.764 752.471 236.534C696.686 235.885 659.838 235.455 600.966 254.679C562.952 267.093 535.24 280.538 510.795 292.398C483.763 305.516 460.415 316.842 431.687 322.445C405.964 327.456 387.206 325.185 361.242 322.038C332.151 318.514 295.946 314.124 232.939 317.965C115.115 325.149 -5.06448 342.882 -27.1321 347.533L-31.8924 348.536ZM524.257 172.996C486.309 172.996 439.528 175.423 386.249 183.062C240.783 203.914 170.647 245.85 169.954 246.27L169.908 246.297L-22.9367 345.407C7.88063 339.71 121.43 323.485 232.84 316.694C295.994 312.846 332.282 317.243 361.438 320.778C387.252 323.903 405.905 326.163 431.375 321.2C459.903 315.64 483.163 304.354 510.099 291.283C534.593 279.401 562.352 265.931 600.468 253.484C659.589 234.177 696.554 234.61 752.489 235.26C772.388 235.491 794.943 235.755 821.557 235.112C843.041 234.594 860.508 234.444 875.913 234.31C931.888 233.828 957.434 233.608 1033.32 216.678C1073.4 207.739 1106.88 197.549 1139.25 187.696C1185.75 173.547 1229.66 160.184 1289.3 151.223C1383.94 137.004 1481.75 164.647 1494.18 168.342L1443.46 12.5849C1410.9 17.8817 1367.66 40.3325 1329.47 60.1554C1305.33 72.6876 1282.53 84.5247 1266.33 89.8608C1238.82 98.9141 1197.29 98.2517 1139.81 97.3392C1109.56 96.8582 1075.28 96.3135 1035.63 96.9817C936.712 98.6532 908.558 115.213 857.443 145.278C848.186 150.721 838.615 156.351 827.592 162.531C754.226 203.661 630.967 180.618 629.727 180.38C629.12 180.263 589.913 172.996 524.257 172.996ZM-34.5301 344.19L168.322 238.813C169.977 237.805 241.228 195.094 386.408 175.601C532.557 155.975 629.491 176.546 630.453 176.755C631.678 177.024 753.884 203.15 827.535 161.345C838.665 155.027 848.338 149.262 857.694 143.687C909.628 112.736 938.235 95.6863 1037.6 95.5348C1077.33 95.4966 1111.57 96.6052 1141.81 97.6023C1199.11 99.4919 1240.5 100.859 1267.91 91.8611C1284.1 86.5479 1307.08 74.4888 1331.4 61.7211C1370.33 41.2882 1414.46 18.1292 1447.44 13.2477L1448.1 13.1514L1448.26 13.7183L1496.78 181.515L1495.47 181.055C1494.44 180.692 1391.05 145.099 1290.38 159.342C1230.69 167.788 1186.58 181.123 1139.87 195.243C1107.28 205.096 1073.57 215.286 1033.27 224.058C956.882 240.682 931.288 240.495 875.188 240.097C859.784 239.988 842.327 239.861 820.844 240.059C794.186 240.303 771.628 239.659 751.724 239.092C695.968 237.502 659.136 236.452 599.901 255.727C561.649 268.176 533.678 281.875 508.999 293.964C481.711 307.329 458.143 318.873 429.302 324.302C403.479 329.16 384.767 326.464 358.865 322.732C329.849 318.546 293.741 313.339 230.669 316.362C112.727 322.009 -7.78371 338.717 -29.9402 343.255L-34.5301 344.19ZM510.878 168.399C469.316 168.457 427.805 171.285 386.623 176.863C240.814 196.441 169.823 239.442 169.122 239.874L169.075 239.901L-25.8926 341.181C4.78104 335.713 118.857 320.433 230.591 315.084C293.812 312.054 330.013 317.275 359.097 321.469C384.842 325.178 403.443 327.86 429.002 323.053C457.631 317.664 481.111 306.163 508.3 292.846C533.024 280.735 561.046 267.01 599.4 254.528C658.901 235.167 695.844 236.221 751.772 237.815C771.661 238.382 794.204 239.026 820.83 238.781C842.324 238.584 859.791 238.708 875.199 238.82C931.168 239.222 956.714 239.403 1032.92 222.818C1073.16 214.059 1106.84 203.88 1139.4 194.035C1186.17 179.9 1230.34 166.547 1290.16 158.084C1385.08 144.651 1482.33 175.341 1494.69 179.429L1447.03 14.6085C1414.38 19.6568 1370.7 42.5799 1332.14 62.8203C1307.75 75.6182 1284.72 87.706 1268.41 93.0595C1240.73 102.144 1199.22 100.775 1141.76 98.8778C1111.53 97.8799 1077.29 96.7633 1037.6 96.8109C938.676 96.9624 910.196 113.935 858.496 144.746C849.137 150.325 839.456 156.094 828.312 162.419C795.386 181.109 752.862 186.328 715.66 186.328C669.054 186.328 630.791 178.143 630.107 177.993C629.456 177.852 584.884 168.399 510.878 168.399ZM-37.091 339.582L167.61 232.075C169.259 231.057 241.345 187.247 386.92 169.083C533.449 150.799 629.962 174.025 630.921 174.261C632.139 174.563 753.796 204.04 828.252 161.244C839.505 154.776 849.292 148.864 858.758 143.148C911.295 111.415 940.236 93.9359 1039.6 95.388C1079.28 95.9694 1113.53 97.7135 1143.75 99.256C1201 102.176 1242.36 104.285 1269.93 95.2648C1286.22 89.936 1309.44 77.6171 1334.01 64.5743C1373.34 43.7009 1417.92 20.042 1451 15.4414L1451.67 15.348L1451.82 15.9294L1497 193.265L1495.69 192.759C1494.67 192.362 1392.02 153.22 1291.09 166.579C1231.24 174.498 1186.88 187.816 1139.9 201.916C1107.11 211.758 1073.21 221.934 1032.74 230.513C956.03 246.77 930.432 246.16 874.355 244.828C858.957 244.462 841.504 244.047 820.021 243.905C793.367 243.729 770.823 242.686 750.931 241.765C695.219 239.187 658.415 237.484 598.812 256.808C560.322 269.287 532.084 283.251 507.174 295.573C479.623 309.199 455.828 320.965 426.884 326.212C400.958 330.911 382.301 327.767 356.473 323.418C327.546 318.542 291.544 312.477 228.43 314.632C110.371 318.661 -10.4301 334.29 -32.6667 338.705L-37.091 339.582ZM497.953 163.346C460.898 163.386 423.882 165.724 387.12 170.346C240.913 188.587 169.126 232.686 168.418 233.129L168.37 233.157L-28.7578 336.686C1.76448 331.454 116.326 317.181 228.375 313.354C291.661 311.2 327.745 317.275 356.744 322.163C382.407 326.483 400.949 329.612 426.592 324.96C455.32 319.753 479.023 308.035 506.468 294.459C531.429 282.116 559.718 268.126 598.318 255.61C658.196 236.198 695.116 237.906 751.004 240.492C770.881 241.412 793.411 242.454 820.032 242.63C841.53 242.772 858.986 243.187 874.391 243.553C930.345 244.886 955.876 245.492 1032.4 229.273C1072.81 220.708 1106.68 210.542 1139.44 200.709C1186.47 186.591 1230.9 173.255 1290.87 165.317C1386.04 152.726 1482.69 186.598 1494.97 191.105L1450.55 16.7949C1417.82 21.5819 1373.7 44.9949 1334.75 65.668C1310.12 78.742 1286.85 91.0908 1270.43 96.4603C1242.57 105.575 1201.09 103.459 1143.67 100.53C1113.46 98.9893 1079.23 97.2426 1039.58 96.6634C940.666 95.215 911.864 112.615 859.568 144.201C850.099 149.921 840.305 155.836 829.037 162.313C797.521 180.428 757.649 185.7 721.932 185.701C672.638 185.701 631.237 175.666 630.528 175.49C629.844 175.32 580.053 163.346 497.953 163.346ZM-39.5666 334.688L167.029 224.969C168.716 223.915 241.66 178.983 387.558 162.231C534.432 145.366 630.48 171.378 631.435 171.643C632.646 171.981 753.692 204.973 828.967 161.149C840.349 154.523 850.249 148.462 859.824 142.599C912.987 110.051 942.275 92.1238 1041.6 95.2652C1081.27 96.5199 1115.48 98.9145 1145.67 101.027C1202.84 105.03 1244.14 107.92 1271.89 98.8756C1288.28 93.5341 1311.73 80.9444 1336.56 67.6171C1376.3 46.2874 1421.34 22.1088 1454.51 17.8025L1455.19 17.7139L1496.99 205.636L1495.69 205.081C1494.67 204.645 1392.83 161.791 1291.65 174.207C1231.66 181.57 1187.03 194.866 1139.79 208.945C1106.81 218.771 1072.71 228.93 1032.08 237.302C955.061 253.166 929.482 252.109 873.426 249.796C858.039 249.16 840.597 248.44 819.125 247.943C792.474 247.325 769.953 245.861 750.079 244.569C694.432 240.951 657.673 238.56 597.703 257.929C558.976 270.437 530.467 284.673 505.319 297.239C477.502 311.131 453.477 323.133 424.427 328.184C398.407 332.708 379.809 329.096 354.068 324.096C325.242 318.5 289.358 311.538 226.227 312.773C108.107 315.099 -12.9815 329.587 -35.2963 333.871L-39.5666 334.688ZM485.548 157.821C452.864 157.848 420.209 159.743 387.745 163.495C241.246 180.316 168.563 225.565 167.846 226.019L167.797 226.047L-31.5278 331.907C-1.1559 326.914 113.88 313.706 226.195 311.497C289.515 310.247 325.478 317.238 354.378 322.852C379.95 327.819 398.423 331.406 424.149 326.932C452.969 321.918 476.899 309.967 504.607 296.126C529.809 283.539 558.369 269.273 597.21 256.73C657.468 237.269 694.356 239.665 750.185 243.296C770.041 244.587 792.544 246.05 819.162 246.666C840.649 247.165 858.098 247.885 873.495 248.521C929.412 250.831 954.93 251.884 1031.75 236.058C1072.32 227.7 1106.39 217.55 1139.33 207.734C1186.64 193.637 1231.33 180.322 1291.45 172.943C1386.85 161.232 1482.82 198.452 1495.02 203.398L1454.04 19.1528C1421.22 23.6633 1376.66 47.5839 1337.31 68.7051C1312.42 82.065 1288.91 94.6859 1272.39 100.071C1244.34 109.211 1202.91 106.312 1145.55 102.297C1115.38 100.185 1081.19 97.7909 1041.55 96.5369C942.695 93.42 913.554 111.253 860.647 143.646C851.065 149.512 841.157 155.578 829.765 162.212C790.101 185.303 738.152 186.963 701.564 184.289C661.963 181.396 631.303 172.942 631 172.857C630.283 172.659 575.456 157.821 485.548 157.821ZM400.658 332.035C384.408 332.035 369.815 328.801 351.65 324.775C322.94 318.416 287.224 310.487 224.059 310.782C105.931 311.312 -15.4326 324.593 -37.8341 328.739L-41.9501 329.503L166.589 217.482C168.279 216.409 242.102 170.294 388.335 155.029C535.525 139.665 631.055 168.601 632.002 168.897C633.209 169.274 753.568 205.961 829.688 161.06C841.197 154.271 851.218 148.051 860.907 142.037C914.706 108.644 944.338 90.2419 1043.61 95.1689C1083.24 97.1332 1117.4 100.21 1147.54 102.923C1204.62 108.064 1245.86 111.776 1273.78 102.71C1290.27 97.3531 1313.96 84.4851 1339.05 70.8624C1379.2 49.0559 1424.72 24.3406 1457.97 20.3454L1458.66 20.2625L1496.74 218.658L1495.44 218.049C1494.43 217.577 1393.45 170.819 1292.06 182.245C1231.94 189.02 1187.06 202.289 1139.54 216.338C1106.38 226.144 1072.08 236.284 1031.28 244.435C953.96 259.885 928.406 258.357 872.405 255.009C857.034 254.091 839.606 253.05 818.141 252.178C791.509 251.094 769.02 249.188 749.179 247.506C693.617 242.795 656.908 239.682 596.573 259.091C557.604 271.627 528.821 286.149 503.428 298.962C475.336 313.133 451.081 325.375 421.929 330.222C414.902 331.415 407.787 332.021 400.658 332.035ZM227.332 309.503C288.638 309.503 323.712 317.275 352 323.54C377.465 329.183 395.865 333.26 421.665 328.968C450.576 324.161 474.737 311.97 502.712 297.857C528.156 285.015 556.997 270.466 596.08 257.893C656.722 238.386 693.558 241.51 749.314 246.236C769.141 247.917 791.611 249.823 818.211 250.904C839.687 251.776 857.121 252.818 872.504 253.738C928.355 257.076 953.847 258.598 1030.97 243.19C1071.69 235.054 1105.95 224.924 1139.09 215.128C1186.67 201.059 1231.62 187.77 1291.88 180.98C1387.49 170.21 1482.69 210.921 1494.83 216.337L1457.48 21.6935C1424.58 25.9086 1379.56 50.3578 1339.8 71.9474C1314.66 85.6054 1290.9 98.5053 1274.28 103.906C1246.05 113.075 1204.67 109.348 1147.39 104.191C1117.27 101.479 1083.13 98.4047 1043.52 96.4407C944.766 91.5461 915.273 109.849 861.737 143.08C852.041 149.099 842.013 155.322 830.489 162.121C790.375 185.782 738.397 186.686 701.857 183.279C662.314 179.591 631.826 170.194 631.523 170.1C630.579 169.807 535.339 140.97 388.504 156.297C241.663 171.622 168.139 218.061 167.415 218.528L167.365 218.557L-34.1984 326.828C-3.96729 322.086 111.529 310.011 224.052 309.51C225.15 309.503 226.25 309.503 227.332 309.503ZM399.967 333.903C382.945 333.903 367.998 330.157 349.215 325.451C320.639 318.293 285.075 309.383 221.931 308.656C103.804 307.293 -17.792 319.303 -40.271 323.3L-44.2396 324.008L166.3 209.594C168.055 208.465 242.779 161.152 389.253 147.464C536.736 133.682 631.684 165.689 632.624 166.015C632.927 166.119 663.089 176.454 702.391 180.956C738.606 185.102 790.21 185.003 830.412 160.978C842.053 154.019 852.195 147.637 862 141.465C916.454 107.188 946.448 88.3037 1045.62 95.0987C1085.21 97.8106 1119.3 101.603 1149.38 104.946C1206.34 111.284 1247.5 115.859 1275.59 106.773C1292.18 101.403 1316.13 88.2452 1341.48 74.3144C1382.06 52.0155 1428.05 26.7407 1461.39 23.0754L1462.09 22.9983L1462.19 23.6161L1496.23 232.356L1494.94 231.691C1493.94 231.176 1393.9 180.33 1292.31 190.708C1232.07 196.862 1186.94 210.099 1139.15 224.113C1105.8 233.894 1071.31 244.01 1030.35 251.927C952.727 266.934 927.207 264.909 871.272 260.48C855.922 259.262 838.52 257.884 817.081 256.617C790.47 255.045 768.021 252.673 748.213 250.58C692.757 244.722 656.122 240.851 595.421 260.294C556.211 272.856 527.146 287.67 501.505 300.744C473.138 315.207 448.642 327.692 419.394 332.321C412.971 333.361 406.474 333.89 399.967 333.903ZM203.072 307.272C209.369 307.272 215.661 307.308 221.949 307.381C285.285 308.111 320.95 317.046 349.609 324.226C374.954 330.578 393.266 335.164 419.142 331.069C448.137 326.479 472.535 314.041 500.781 299.641C526.477 286.541 555.6 271.694 594.927 259.097C655.954 239.548 692.728 243.436 748.385 249.315C768.175 251.407 790.605 253.776 817.176 255.347C838.63 256.615 856.042 257.994 871.399 259.211C927.181 263.632 952.632 265.649 1030.04 250.684C1070.92 242.781 1105.38 232.677 1138.7 222.905C1186.56 208.87 1231.76 195.614 1292.15 189.445C1387.96 179.663 1482.32 224.038 1494.38 229.951L1460.87 24.4217C1427.9 28.3286 1382.41 53.3255 1342.24 75.3976C1316.82 89.3644 1292.82 102.556 1276.08 107.97C1247.67 117.164 1206.37 112.571 1149.2 106.212C1119.14 102.869 1085.06 99.0784 1045.5 96.3694C946.861 89.6195 917.014 108.4 862.838 142.502C853.021 148.679 842.876 155.066 831.22 162.032C790.635 186.288 738.646 186.396 702.171 182.215C662.701 177.691 632.4 167.306 632.101 167.202C631.161 166.878 536.513 134.986 389.405 148.731C242.331 162.474 167.866 210.155 167.131 210.635L167.079 210.666L-36.7607 321.439C-8.35608 317.203 96.5804 307.272 203.072 307.272ZM399.149 335.858C381.366 335.858 366.113 331.566 346.77 326.123C318.341 318.125 282.96 308.173 219.843 306.381C101.769 303.024 -20.0464 313.692 -42.5993 317.537L-46.4252 318.191L166.164 201.287C167.941 200.127 243.593 151.542 390.322 139.513C538.06 127.403 632.371 162.633 633.304 162.991C633.604 163.105 663.557 174.473 702.76 179.847C738.876 184.799 790.474 185.532 831.136 160.9C842.913 153.767 853.175 147.214 863.101 140.877C918.232 105.685 948.595 86.2987 1047.62 95.0558C1087.16 98.5522 1121.17 103.097 1151.18 107.106C1208.01 114.698 1249.07 120.184 1277.32 111.079C1294.01 105.698 1318.21 92.2386 1343.83 77.9895C1384.85 55.1779 1431.34 29.3224 1464.75 26.0056L1465.46 25.9347L1465.54 26.5626L1495.45 246.769L1494.16 246.042C1493.17 245.484 1394.16 190.358 1292.39 199.622C1232.04 205.12 1186.66 218.318 1138.61 232.291C1105.06 242.045 1070.37 252.131 1029.27 259.798C951.36 274.333 925.875 271.789 870.035 266.216C854.707 264.686 837.339 262.953 815.929 261.27C789.351 259.185 766.954 256.324 747.189 253.8C691.861 246.735 655.31 242.065 594.244 261.543C554.792 274.126 525.442 289.25 499.541 302.589C470.896 317.349 446.155 330.096 416.816 334.493C410.97 335.389 405.064 335.845 399.149 335.858ZM172.934 304.463C188.494 304.463 204.222 304.663 219.89 305.106C283.206 306.901 318.693 316.886 347.207 324.91C372.419 332.003 390.634 337.13 416.576 333.238C445.654 328.881 470.289 316.189 498.817 301.49C524.769 288.122 554.181 272.97 593.753 260.346C655.164 240.761 691.854 245.448 747.394 252.541C767.14 255.063 789.519 257.919 816.053 260.005C837.481 261.687 854.865 263.42 870.196 264.954C925.875 270.506 951.286 273.042 1028.97 258.553C1070 250.901 1104.65 240.825 1138.15 231.083C1186.28 217.087 1231.74 203.869 1292.25 198.357C1388.24 189.617 1481.68 237.83 1493.66 244.27L1464.2 27.3468C1431.17 30.926 1385.2 56.493 1344.6 79.0694C1318.91 93.3557 1294.65 106.85 1277.81 112.277C1249.22 121.494 1208.01 115.988 1150.97 108.368C1120.97 104.361 1086.98 99.8189 1047.48 96.3251C949.001 87.6137 918.791 106.899 863.95 141.91C854.016 148.252 843.743 154.81 831.948 161.952C790.887 186.824 738.891 186.095 702.5 181.102C663.126 175.699 633.033 164.278 632.733 164.162C631.801 163.806 537.793 128.703 390.455 140.783C243.138 152.86 167.747 201.833 167.003 202.325L166.951 202.357L-39.21 315.724C-13.4244 312.083 76.4164 304.463 172.934 304.463ZM398.204 337.9C379.674 337.904 364.156 333.027 344.308 326.792C316.043 317.911 280.867 306.861 217.801 303.95C99.8079 298.504 -22.191 307.751 -44.8149 311.432L-48.5033 312.032L166.191 192.544C167.955 191.375 244.559 141.444 391.548 131.164C539.504 120.815 633.117 159.428 634.046 159.821C634.343 159.946 664.062 172.393 703.151 178.687C739.162 184.483 790.723 186.091 831.86 160.834C843.776 153.517 854.17 146.787 864.22 140.277C920.038 104.13 950.789 84.2184 1049.64 95.0468C1089.09 99.369 1123.02 104.704 1152.94 109.411C1209.6 118.324 1250.54 124.762 1278.96 115.641C1295.76 110.249 1320.22 96.4766 1346.12 81.895C1387.58 58.5518 1434.58 32.0946 1468.05 29.1451L1468.77 29.0815L1468.84 29.7178L1494.39 261.927L1493.1 261.135C1492.13 260.532 1394.23 200.901 1292.3 209.007C1231.85 213.813 1186.22 226.967 1137.9 240.891C1104.17 250.614 1069.28 260.666 1028.03 268.068C949.838 282.101 924.409 279.012 868.686 272.239C853.391 270.379 836.059 268.275 814.682 266.156C788.151 263.529 765.812 260.155 746.099 257.177C690.929 248.843 654.48 243.337 593.04 262.843C553.351 275.444 523.705 290.88 497.547 304.503C468.611 319.572 443.62 332.588 414.197 336.741C408.9 337.501 403.556 337.889 398.204 337.9ZM141.143 301.004C166.2 301.004 192.134 301.49 217.876 302.679C281.151 305.597 316.438 316.683 344.791 325.589C369.853 333.463 387.959 339.154 413.969 335.48C443.123 331.367 468.007 318.409 496.816 303.405C523.028 289.754 552.737 274.285 592.554 261.643C654.344 242.024 690.943 247.552 746.344 255.92C766.036 258.896 788.353 262.268 814.843 264.892C836.238 267.01 853.581 269.118 868.883 270.975C924.434 277.726 949.791 280.807 1027.74 266.821C1068.91 259.432 1103.76 249.391 1137.45 239.68C1185.85 225.731 1231.56 212.556 1292.18 207.737C1388.29 200.098 1480.76 252.33 1492.65 259.326L1467.47 30.4801C1434.39 33.7123 1387.92 59.8712 1346.89 82.9706C1320.93 97.5907 1296.4 111.4 1279.45 116.839C1250.67 126.078 1209.57 119.614 1152.69 110.667C1122.78 105.962 1088.88 100.63 1049.46 96.3135C951.169 85.5479 920.591 105.354 865.072 141.307C855.015 147.821 844.613 154.556 832.683 161.883C791.132 187.396 739.147 185.783 702.855 179.937C663.586 173.611 633.721 161.099 633.424 160.973C632.499 160.583 539.215 122.111 391.662 132.437C244.137 142.753 167.794 193.068 167.039 193.576L166.987 193.608L-41.5427 309.668C-18.5326 306.614 56.2627 301.004 141.143 301.004ZM397.149 340.037C377.882 340.037 362.136 334.539 341.833 327.453C313.751 317.649 278.8 305.448 215.806 301.363C97.9471 293.718 -24.2164 301.469 -46.9087 304.972L-50.4633 305.524L166.393 183.341C168.189 182.134 245.77 130.83 392.939 122.396C541.092 113.907 633.929 156.07 634.851 156.496C635.143 156.633 664.614 170.217 703.565 177.473C739.447 184.159 790.96 186.689 832.584 160.775C844.646 153.267 855.168 146.353 865.347 139.666C921.874 102.526 953.016 82.0687 1051.65 95.0686C1091.01 100.258 1124.82 106.424 1154.66 111.865C1211.12 122.163 1251.93 129.605 1280.51 120.468C1297.41 115.066 1322.14 100.969 1348.33 86.0436C1390.24 62.1477 1437.76 35.0629 1471.29 32.5023L1472.02 32.447L1472.08 33.0895L1493.03 277.864L1491.75 277.003C1490.79 276.349 1394.09 212.012 1292.03 218.881C1231.5 222.958 1185.6 236.06 1137.02 249.931C1103.1 259.615 1068.02 269.63 1026.63 276.752C948.167 290.251 922.8 286.585 867.216 278.555C851.961 276.349 834.669 273.849 813.343 271.276C786.864 268.079 764.595 264.165 744.944 260.71C689.948 251.044 653.62 244.658 591.815 264.187C551.884 276.803 521.938 292.573 495.514 306.483C466.285 321.875 441.038 335.167 411.532 339.059C406.764 339.701 401.96 340.027 397.149 340.037ZM108.319 296.832C142.556 296.832 179.438 297.726 215.911 300.091C279.125 304.19 314.189 316.432 342.364 326.269C367.263 334.96 385.251 341.236 411.319 337.802C440.544 333.943 465.677 320.709 494.779 305.389C521.254 291.447 551.266 275.644 591.329 262.988C653.507 243.338 689.992 249.753 745.225 259.46C764.854 262.912 787.102 266.821 813.537 270.012C834.885 272.588 852.184 275.088 867.45 277.294C922.854 285.302 948.141 288.958 1026.36 275.499C1067.66 268.391 1102.7 258.391 1136.58 248.718C1185.25 234.824 1231.21 221.699 1291.92 217.611C1388.17 211.135 1479.55 267.571 1491.35 275.158L1470.69 33.8329C1437.55 36.6999 1390.58 63.474 1349.11 87.1166C1322.85 102.083 1298.06 116.218 1281 121.668C1252.03 130.927 1211.06 123.455 1154.36 113.114C1124.55 107.677 1090.76 101.515 1051.43 96.3313C953.397 83.4055 922.423 103.755 866.206 140.691C856.02 147.383 845.491 154.302 833.418 161.819C791.359 188.001 739.407 185.458 703.232 178.715C664.091 171.419 634.474 157.764 634.178 157.627C633.264 157.202 540.755 115.209 393.032 123.67C245.335 132.133 168.012 183.847 167.248 184.368L167.195 184.401L-43.7488 303.249C-23.6642 300.764 36.4875 296.832 108.319 296.832ZM395.986 342.264C375.987 342.264 360.053 336.109 339.345 328.107C311.462 317.337 276.76 303.929 213.862 298.605C96.1766 288.645 -26.1164 294.819 -48.8738 298.14L-52.3003 298.638L166.778 173.657C168.663 172.371 247.245 119.676 394.503 113.191C542.814 106.655 634.807 152.546 635.718 153.011C636.01 153.16 665.203 167.933 704.004 176.202C739.747 183.819 791.191 187.315 833.312 160.723C845.52 153.016 856.178 145.91 866.488 139.038C923.74 100.866 955.277 79.8354 1053.66 95.1253C1092.92 101.226 1126.6 108.264 1156.32 114.474C1212.57 126.23 1253.21 134.723 1281.97 125.573C1298.97 120.164 1323.98 105.728 1350.45 90.4451C1392.84 65.9747 1440.88 38.2391 1474.47 36.088L1475.2 36.0407L1475.24 36.6879L1491.35 294.616L1490.08 293.678C1489.13 292.977 1393.67 223.687 1291.55 229.268C1230.95 232.575 1184.81 245.62 1135.96 259.43C1101.86 269.071 1066.59 279.042 1025.06 285.866C946.331 298.802 921.04 294.532 865.617 285.175C850.41 282.606 833.173 279.696 811.898 276.64C785.485 272.846 763.296 268.362 743.719 264.409C688.932 253.346 652.735 246.035 590.564 265.582C550.389 278.213 520.139 294.321 493.448 308.533C463.911 324.259 438.405 337.838 408.821 341.457C404.563 341.988 400.277 342.258 395.986 342.264ZM75.4549 291.908C117.782 291.908 166.266 293.297 213.998 297.337C277.127 302.679 311.945 316.131 339.924 326.941C364.643 336.49 382.503 343.387 408.623 340.197C437.915 336.61 463.304 323.093 492.702 307.439C519.451 293.198 549.77 277.054 590.078 264.38C652.647 244.709 689.005 252.053 744.04 263.166C763.596 267.116 785.763 271.592 812.129 275.382C833.425 278.442 850.67 281.353 865.888 283.922C921.124 293.246 946.338 297.504 1024.8 284.612C1066.23 277.802 1101.46 267.846 1135.52 258.216C1184.46 244.381 1230.68 231.314 1291.46 227.996C1387.81 222.738 1478.03 283.58 1489.73 291.792L1473.84 37.4099C1440.66 39.8917 1393.17 67.305 1351.24 91.5126C1324.69 106.837 1299.62 121.312 1282.46 126.773C1253.3 136.05 1212.49 127.521 1155.99 115.715C1126.29 109.509 1092.63 102.475 1053.41 96.38C955.65 81.1912 924.288 102.098 867.354 140.057C857.041 146.934 846.372 154.047 834.153 161.761C791.575 188.64 739.674 185.12 703.631 177.433C664.636 169.118 635.29 154.264 634.997 154.116C634.09 153.654 542.434 107.954 394.575 114.464C246.743 120.975 168.414 174.145 167.639 174.681L167.585 174.715L-45.8228 296.461C-28.776 294.507 17.5744 291.908 75.4549 291.908ZM394.722 344.593C373.998 344.593 357.91 337.737 336.845 328.758C309.18 316.966 274.749 302.293 211.97 295.673C94.4971 283.278 -27.8902 287.788 -50.7068 290.916L-54.009 291.367L167.351 163.475C169.213 162.184 248.831 107.965 396.25 103.529C544.687 99.0645 635.754 148.854 636.658 149.357C636.947 149.518 665.843 165.54 704.468 174.872C740.047 183.468 791.406 187.982 834.04 160.684C846.394 152.771 857.194 145.465 867.636 138.4C925.641 99.1492 957.599 77.528 1055.67 95.2168C1094.81 102.276 1128.34 110.23 1157.94 117.249C1213.94 130.533 1254.41 140.128 1283.33 130.971C1300.43 125.553 1325.72 110.767 1352.49 95.1122C1395.35 70.0448 1443.94 41.6326 1477.57 39.9135L1478.31 39.8754L1478.33 40.5265L1489.35 312.221L1488.08 311.203C1487.15 310.451 1393.15 235.989 1290.87 240.193C1230.22 242.691 1183.83 255.67 1134.72 269.408C1100.43 279.004 1064.97 288.924 1023.31 295.432C944.334 307.769 919.124 302.867 863.891 292.115C848.735 289.168 831.56 285.825 810.348 282.264C784.015 277.842 761.917 272.762 742.42 268.285C687.86 255.749 651.821 247.467 589.281 267.028C548.867 279.669 518.303 296.13 491.337 310.654C461.494 326.729 435.724 340.606 406.063 343.938C402.298 344.368 398.512 344.587 394.722 344.593ZM44.0271 286.204C92.4135 286.204 152.906 288.158 212.141 294.405C275.159 301.054 309.709 315.778 337.471 327.609C361.994 338.064 379.711 345.611 405.882 342.675C435.234 339.379 460.888 325.564 490.585 309.568C517.613 295.012 548.247 278.511 588.799 265.829C651.757 246.138 687.968 254.456 742.784 267.05C762.259 271.523 784.335 276.596 810.62 281.011C831.851 284.576 849.036 287.922 864.2 290.873C919.242 301.581 944.357 306.469 1023.06 294.179C1064.62 287.686 1100.04 277.777 1134.29 268.195C1183.49 254.428 1229.97 241.426 1290.81 238.92C1387.26 234.955 1476.21 300.408 1487.79 309.277L1476.92 41.2275C1443.7 43.2987 1395.68 71.3795 1353.28 96.1754C1326.44 111.873 1301.08 126.701 1283.82 132.17C1254.47 141.463 1213.83 131.825 1157.56 118.48C1127.99 111.467 1094.48 103.517 1055.38 96.4654C957.955 78.8932 926.184 100.39 868.515 139.412C858.063 146.482 847.259 153.794 834.886 161.716C791.783 189.318 739.944 184.768 704.055 176.092C665.225 166.706 636.175 150.596 635.886 150.434C634.99 149.933 544.252 100.359 396.299 104.802C248.328 109.256 169.006 163.939 168.222 164.491L168.167 164.528L-47.7576 289.281C-33.7884 287.81 0.138798 286.204 44.0271 286.204ZM393.359 347.021C371.913 347.021 355.708 339.423 334.33 329.401C306.903 316.545 272.77 300.542 210.136 292.555C92.934 277.603 -29.5225 280.364 -52.3973 283.282L-55.5791 283.689L168.124 152.767C170.022 151.432 250.702 95.6641 398.185 93.3891C546.667 91.1086 636.773 144.984 637.667 145.528C637.952 145.702 666.527 163.033 704.962 173.481C740.361 183.102 791.611 188.688 834.768 160.654C847.279 152.528 858.219 145.014 868.799 137.746C927.58 97.376 959.954 75.1338 1057.68 95.3487C1096.67 103.416 1130.05 112.331 1159.5 120.198C1215.23 135.086 1255.5 145.842 1284.58 136.676C1301.78 131.252 1327.36 116.101 1354.43 100.06C1397.79 74.3718 1446.93 45.2565 1480.6 43.992L1481.34 43.964L1481.35 44.6181L1487 330.723L1485.74 329.618C1484.82 328.811 1392.25 248.911 1289.98 251.683C1229.29 253.328 1182.66 266.232 1133.28 279.898C1098.8 289.437 1063.15 299.306 1021.36 305.48C942.151 317.18 917.043 311.61 862.022 299.4C846.928 296.046 829.819 292.253 808.684 288.158C782.442 283.078 760.447 277.373 741.041 272.344C686.748 258.266 650.877 248.968 587.971 268.536C547.316 281.185 516.43 298.012 489.183 312.86C459.025 329.291 432.985 343.484 403.257 346.508C399.969 346.846 396.665 347.017 393.359 347.021ZM15.8686 279.71C67.4289 279.71 139.844 282.301 210.343 291.291C273.225 299.314 307.482 315.371 335.007 328.274C359.315 339.67 376.876 347.907 403.092 345.236C432.497 342.246 458.414 328.125 488.426 311.774C515.735 296.89 546.691 280.023 587.492 267.33C650.837 247.627 686.884 256.971 741.447 271.116C760.831 276.142 782.801 281.839 808.995 286.912C830.152 291.007 847.268 294.808 862.373 298.158C917.189 310.324 942.205 315.876 1021.13 304.219C1062.81 298.06 1098.42 288.206 1132.85 278.678C1182.32 264.986 1229.05 252.056 1289.93 250.408C1343.71 248.924 1394.39 270.321 1427.41 288.508C1458.48 305.619 1480.19 323.196 1485.5 327.643L1479.92 45.2957C1446.67 46.9407 1398.11 75.7097 1355.23 101.116C1328.08 117.203 1302.44 132.397 1285.06 137.873C1255.53 147.183 1215.07 136.374 1159.08 121.415C1129.65 113.554 1096.3 104.643 1057.35 96.5875C960.294 76.5142 928.114 98.6187 869.684 138.75C859.096 146.022 848.15 153.542 835.623 161.678C791.973 190.034 740.226 184.405 704.501 174.687C665.865 164.178 637.133 146.75 636.848 146.575C635.959 146.034 546.219 92.3647 398.212 94.662C250.186 96.945 169.799 153.208 169.005 153.776L168.95 153.813L-49.5456 281.687C-38.5729 280.644 -15.1156 279.71 15.8686 279.71ZM1484.29 350.149L1483.03 348.957C1482.13 348.092 1391.14 262.486 1288.85 263.755C1228.15 264.499 1181.27 277.326 1131.64 290.905C1096.97 300.386 1061.13 310.193 1019.22 316.011C939.779 327.046 914.785 320.771 860.013 307.025C844.988 303.256 827.96 298.98 806.905 294.328C780.766 288.555 758.888 282.196 739.581 276.585C685.577 260.891 649.907 250.524 586.631 270.092C545.735 282.744 514.523 299.953 486.984 315.139C456.507 331.944 430.185 346.457 400.398 349.157C373.684 351.585 356.115 342.544 331.803 330.037C304.635 316.062 270.826 298.667 208.364 289.241C91.4758 271.603 -31.0081 272.523 -53.9363 275.223L-57 275.582L169.112 141.508C169.99 140.879 190.461 126.396 228.397 112.116C263.992 98.7179 322.713 82.7467 400.325 82.7467C548.859 82.7467 637.871 140.924 638.753 141.511C639.034 141.7 667.262 160.403 705.481 172.022C740.675 182.723 791.801 189.431 835.499 160.63C848.168 152.281 859.253 144.55 869.976 137.073C929.547 95.5329 962.372 72.6545 1059.69 95.5148C1098.52 104.635 1131.71 114.563 1161 123.322C1216.42 139.894 1256.46 151.869 1285.72 142.695C1303.02 137.267 1328.89 121.736 1356.28 105.293C1400.14 78.9604 1449.85 49.1137 1483.54 48.3292L1484.29 48.3124V350.149H1484.29ZM-7.328 272.457C44.1891 272.457 127.751 275.786 208.608 287.984C271.327 297.45 305.262 314.906 332.53 328.936C356.605 341.319 374.001 350.258 400.252 347.893C429.708 345.222 455.898 330.778 486.224 314.056C513.823 298.838 545.107 281.589 586.157 268.893C649.893 249.175 685.75 259.599 740.036 275.375C759.313 280.978 781.17 287.33 807.257 293.093C828.331 297.748 845.374 302.025 860.409 305.8C914.973 319.492 939.872 325.742 1019 314.753C1060.8 308.947 1096.59 299.158 1131.21 289.688C1180.94 276.08 1227.92 263.228 1288.83 262.483C1289.58 262.472 1290.33 262.468 1291.07 262.468C1344.06 262.468 1393.35 285.411 1425.55 304.819C1456.25 323.314 1477.6 342.151 1482.85 346.933V49.6249C1449.58 50.8157 1400.46 80.306 1357.09 106.347C1329.62 122.837 1303.68 138.413 1286.2 143.895C1256.48 153.213 1216.23 141.183 1160.54 124.528C1131.27 115.775 1098.1 105.856 1059.32 96.7459C962.683 74.0422 930.074 96.788 870.869 138.073C860.139 145.555 849.046 153.291 836.362 161.651C792.145 190.788 740.511 184.023 704.977 173.215C666.549 161.526 638.168 142.716 637.886 142.528C637.009 141.944 548.348 84.02 400.325 84.02C252.325 84.02 170.806 141.927 169.999 142.512L169.943 142.548L-51.179 273.665C-42.957 272.973 -27.628 272.457 -7.328 272.457Z" fill="#F3F5F9"></path></svg>